<?xml version="1.0" encoding="UTF-8"?>
<!-- Generator: Adobe Illustrator 26.0.3, SVG Export Plug-In . SVG Version: 6.00 Build 0)  -->
<svg version="1.1" id="Calque_1" xmlns="http://www.w3.org/2000/svg" xmlns:xlink="http://www.w3.org/1999/xlink" x="0px" y="0px" viewBox="0 0 441.9 238.3" style="enable-background:new 0 0 441.9 238.3;" xml:space="preserve">
<style type="text/css">
	.st0{fill:url(#SVGID_1_);}
	.st1{fill:url(#SVGID_00000057865554372953059010000015154225491141171856_);}
	
		.st2{clip-path:url(#SVGID_00000120531242303063638820000002543512904719565452_);fill:url(#SVGID_00000149370131094497454530000011236840383704640446_);}
	
		.st3{clip-path:url(#SVGID_00000142876111016075911040000002067408310802675632_);fill:url(#SVGID_00000127027733066648919300000004837955854824308665_);}
	
		.st4{clip-path:url(#SVGID_00000073707114895896526920000000224957769205649024_);fill:url(#SVGID_00000034065147699051324100000006526586433325167752_);}
	.st5{fill:#B4CC04;stroke:#B4CC04;stroke-width:2.1474;stroke-linecap:round;stroke-linejoin:round;stroke-miterlimit:10;}
	.st6{fill:#00A19A;}
</style>
<g>
	<g>
		
			<linearGradient id="SVGID_1_" gradientUnits="userSpaceOnUse" x1="6224.8594" y1="1428.2391" x2="6283.6299" y2="1428.2391" gradientTransform="matrix(-1.793227e-03 -1 -1 1.793227e-03 1845.7754 6369.374)">
			<stop offset="0" style="stop-color:#B4CC04"/>
			<stop offset="0.1357" style="stop-color:#A8C813"/>
			<stop offset="0.447" style="stop-color:#90BF21"/>
			<stop offset="0.7416" style="stop-color:#80BA27"/>
			<stop offset="1" style="stop-color:#7AB929"/>
		</linearGradient>
		<path class="st0" d="M392.8,147.1c0,0-13.8-25.5,16.4-58.8l13.8,21.9c0,0-1.7,4.3-5.6,10.7C410.5,132.6,406.1,138.6,392.8,147.1z"/>
		
			<linearGradient id="SVGID_00000080903692757028355660000004833637067704857227_" gradientUnits="userSpaceOnUse" x1="6370.2134" y1="1443.7194" x2="6233.1685" y2="1409.8042" gradientTransform="matrix(-1.793227e-03 -1 -1 1.793227e-03 1845.7754 6369.374)">
			<stop offset="0" style="stop-color:#DEDC00"/>
			<stop offset="6.421894e-02" style="stop-color:#DBDB00"/>
			<stop offset="0.6636" style="stop-color:#BFD000"/>
			<stop offset="1" style="stop-color:#B4CC04"/>
		</linearGradient>
		<path style="fill:url(#SVGID_00000080903692757028355660000004833637067704857227_);" d="M392.2,9.3c0,0-34.3,28.2,3.2,77.1    c8.3,10.8,29.8,28.1,12.8,48C408.2,134.4,469.4,63.3,392.2,9.3z"/>
	</g>
	<g>
		<g>
			<defs>
				<circle id="SVGID_00000031201513392220991330000010383957422314507188_" cx="317.3" cy="112.6" r="118.5"/>
			</defs>
			<clipPath id="SVGID_00000132063156008423705040000009207732678572177829_">
				<use xlink:href="#SVGID_00000031201513392220991330000010383957422314507188_" style="overflow:visible;"/>
			</clipPath>
			
				<linearGradient id="SVGID_00000025426644708612502160000010678753683324716967_" gradientUnits="userSpaceOnUse" x1="135.1425" y1="66.0078" x2="306.4232" y2="66.0078" gradientTransform="matrix(0.922 -0.3872 -0.3872 -0.922 101.6586 319.752)">
				<stop offset="0" style="stop-color:#7AB929"/>
				<stop offset="0.3096" style="stop-color:#74B72B"/>
				<stop offset="0.6292" style="stop-color:#63B32F"/>
				<stop offset="0.9524" style="stop-color:#42AB34"/>
				<stop offset="1" style="stop-color:#3AAA35"/>
			</linearGradient>
			
				<path style="clip-path:url(#SVGID_00000132063156008423705040000009207732678572177829_);fill:url(#SVGID_00000025426644708612502160000010678753683324716967_);" d="     M372,172.1c0,0-45.1,49.3-169.1,39.7l-8.1-47.7C194.8,164,301.6,206.7,372,172.1z"/>
		</g>
		<g>
			<defs>
				<circle id="SVGID_00000039128954645104124720000012694242568299871388_" cx="317.3" cy="112.6" r="118.5"/>
			</defs>
			<clipPath id="SVGID_00000165233315378231691340000005156970038923895185_">
				<use xlink:href="#SVGID_00000039128954645104124720000012694242568299871388_" style="overflow:visible;"/>
			</clipPath>
			
				<linearGradient id="SVGID_00000107587245706594454610000014613089153165895592_" gradientUnits="userSpaceOnUse" x1="272.8771" y1="53.1447" x2="412.0305" y2="107.1129" gradientTransform="matrix(1 0 0 -1 0 252)">
				<stop offset="0" style="stop-color:#FFED00"/>
				<stop offset="0.6047" style="stop-color:#FFD300"/>
				<stop offset="1" style="stop-color:#FDC300"/>
			</linearGradient>
			
				<path style="clip-path:url(#SVGID_00000165233315378231691340000005156970038923895185_);fill:url(#SVGID_00000107587245706594454610000014613089153165895592_);" d="     M285.5,213.5c0,0,86.7-2,151.8-54.1l14.6-65.1C452,94.2,392,197,285.5,213.5z"/>
		</g>
		<g>
			<defs>
				<circle id="SVGID_00000110467347943552870930000008669379031125615249_" cx="317.3" cy="112.6" r="118.5"/>
			</defs>
			<clipPath id="SVGID_00000013881202745793429870000008772571871736849537_">
				<use xlink:href="#SVGID_00000110467347943552870930000008669379031125615249_" style="overflow:visible;"/>
			</clipPath>
			
				<linearGradient id="SVGID_00000060009671324292449630000001162918466051746959_" gradientUnits="userSpaceOnUse" x1="350.3275" y1="-3.4075" x2="161.641" y2="11.6666" gradientTransform="matrix(0.922 -0.3872 -0.3872 -0.922 101.6586 319.752)">
				<stop offset="0" style="stop-color:#63BFB5"/>
				<stop offset="0.1962" style="stop-color:#5EBDBC"/>
				<stop offset="0.5429" style="stop-color:#50B6CC"/>
				<stop offset="0.9968" style="stop-color:#37AAE1"/>
				<stop offset="1" style="stop-color:#36A9E1"/>
			</linearGradient>
			
				<path style="clip-path:url(#SVGID_00000013881202745793429870000008772571871736849537_);fill:url(#SVGID_00000060009671324292449630000001162918466051746959_);" d="     M243.2,217.9c0,0,97.7,11.5,192-49.3l-19.3,31.1l-81.3,47.1l-66.4,8.5L243.2,217.9z"/>
		</g>
	</g>
</g>
<g>
	<g>
		<path class="st5" d="M93.7,75.4c-1.7,0.6-3.6,0.9-5.9,0.9c-7,0-11.4-3.3-13.4-9.9l2.6-0.9c1.5,5.4,5.1,8.1,10.8,8.1    c3.3,0,5.8-0.8,7.7-2.4c1.9-1.7,2.9-4.1,2.9-7.3c0-3-1.1-5.5-3.4-7.5c-0.6-0.6-1.5-1.2-2.7-1.8c-1.2-0.7-2.8-1.4-4.7-2.3    c-3.6-1.6-6.1-3-7.4-4.2c-2.2-1.9-3.3-4.4-3.3-7.6s1.1-5.7,3.4-7.6c2.2-2,4.9-2.9,8.1-2.9c5.3,0,9.1,2,11.3,6l-2.5,1.1    c-0.8-1.4-1.9-2.4-3.1-3.1c-1.5-0.9-3.4-1.4-5.8-1.4c-2.5,0-4.6,0.7-6.2,2.1c-1.8,1.5-2.7,3.4-2.7,5.9c0,2.2,0.9,4,2.8,5.7    c1.1,0.8,3.2,2,6.4,3.4c2,0.9,3.7,1.8,5.2,2.6c1.4,0.9,2.6,1.7,3.5,2.6c2.5,2.4,3.7,5.4,3.7,9C101,69.8,98.6,73.6,93.7,75.4z"/>
		<path class="st5" d="M137.6,75.8l-5.2-13.6h-20.7l-5.3,13.6h-2.5L122,28.9l18.2,46.9L137.6,75.8L137.6,75.8z M122.1,35.5l-9.3,24    h18.6L122.1,35.5z"/>
		<path class="st5" d="M144.1,75.8V30.4h2.5v45.4L144.1,75.8L144.1,75.8z"/>
		<path class="st5" d="M154.8,37.2v38.5h-2.5V30l33.9,39.8V30.4h2.6v46.2L154.8,37.2z"/>
		<path class="st5" d="M205.2,33v42.8h-2.6V33h-10.1v-2.6h22.7V33H205.2z"/>
	</g>
	<path class="st6" d="M29.1,115.1c-6.4-2.6-11.5-6.1-15.5-10.6S7.7,94.2,7.7,87.1c0-4.5,0.8-8.6,2.5-12.1c1.7-3.6,4-6.6,6.9-9.1   s6.2-4.4,10.1-5.7c3.8-1.3,7.9-2,12.3-2c2.9,0,5.8,0.3,8.7,0.8s5.6,1.1,8.1,1.9s4.6,1.5,6.5,2.2c1.8,0.7,3,1.4,3.7,1.9   c0.4,0.4,0.7,0.8,0.7,1.2c0,0.5-0.2,1.2-0.6,2.3l-2.1,5.8c-0.2,0.6-0.6,0.8-1.3,0.7s-1.4-0.2-2.1-0.4c-0.9-0.3-2.1-0.6-3.7-1   c-1.6-0.4-3.3-0.7-5.2-1s-3.9-0.6-6-0.9c-2.1-0.3-4-0.4-5.9-0.4c-3.5,0-6.4,0.5-8.6,1.4c-2.3,0.9-4,2.1-5.4,3.5   c-1.3,1.4-2.2,3-2.7,4.6c-0.5,1.7-0.7,3.2-0.7,4.7c0,2.5,0.8,4.8,2.3,7s4.5,4.2,8.9,6l12.5,5c3.7,1.5,7,3.3,9.9,5.4   c2.8,2.2,5.2,4.6,7.1,7.2c1.9,2.6,3.3,5.4,4.2,8.3s1.4,5.9,1.4,9c0,4.2-0.8,8-2.5,11.4s-4,6.2-6.9,8.6c-3,2.4-6.5,4.2-10.7,5.5   s-8.7,1.9-13.7,1.9c-2.8,0-5.6-0.2-8.5-0.7s-5.6-1-8.2-1.7c-2.6-0.7-4.8-1.4-6.7-2.2c-1.9-0.8-3.3-1.5-4-2.1   c-0.4-0.5-0.7-0.9-0.7-1.4s0.2-1.2,0.6-2.2l2.1-5.8c0.2-0.6,0.6-0.8,1.3-0.7c0.7,0.1,1.4,0.2,2.1,0.4c0.9,0.3,2.1,0.6,3.8,1   s3.5,0.7,5.6,1s4.2,0.6,6.4,0.9s4.2,0.4,6.1,0.4c5.7,0,10.3-1.2,13.7-3.5s5.1-5.4,5.1-9.3c0-3.3-1.2-6.2-3.6-8.7   c-2.4-2.5-5.2-4.4-8.6-5.8L29.1,115.1z"/>
	<path class="st6" d="M127.1,159.1c-1,0-1.6-0.2-1.9-0.6s-0.5-1.1-0.7-2.1l-1.3-5.7h-0.3c-1.7,3.3-4.2,5.8-7.4,7.5   c-3.2,1.7-7,2.6-11.4,2.6c-3.3,0-6.4-0.5-9.4-1.5s-5.6-2.6-7.8-4.6c-2.3-2.1-4-4.7-5.4-7.8c-1.3-3.1-2-6.8-2-11   c0-4.4,0.7-8.1,2.2-11c1.4-2.9,3.4-5.2,5.9-6.9c2.5-1.7,5.4-2.9,8.7-3.6c3.3-0.7,6.8-1,10.6-1h13.5c-0.2-1.5-0.5-3.1-1-5   c-0.5-1.8-1.2-3.6-2.3-5.2c-1-1.7-2.5-3.1-4.2-4.2c-1.8-1.1-4-1.7-6.7-1.7c-2.1,0-4.3,0.3-6.7,1c-2.4,0.6-5.1,1.5-8,2.5   c-1.2,0.5-2,0.6-2.5,0.4c-0.4-0.2-0.7-0.4-0.9-0.7l-2.7-4.4c-0.8-1.3-0.7-2.5,0.1-3.6c0.6-0.7,1.7-1.5,3.1-2.3   c1.5-0.8,3.2-1.6,5.2-2.2s4.2-1.2,6.7-1.6c2.4-0.4,5-0.6,7.6-0.6c5.7,0,10.3,1,14,3s6.6,4.7,8.7,8.1s3.6,7.3,4.4,11.7   c0.8,4.4,1.2,9.1,1.2,14.1v33.9c0,1.8-0.9,2.8-2.6,2.8h-6.7V159.1z M120.5,124.9h-13.8c-3.5,0-6.3,0.9-8.4,2.8   c-2.1,1.8-3.2,4.4-3.2,7.7c0,1.4,0.2,2.9,0.7,4.5c0.4,1.6,1.1,3.1,2.1,4.5s2.2,2.5,3.8,3.4c1.6,0.9,3.5,1.4,5.9,1.4   c4,0,7.2-1.6,9.5-4.8c2.3-3.2,3.4-8.4,3.4-15.5V124.9z"/>
	<path class="st6" d="M195.8,159.1c-1,0-1.6-0.2-1.9-0.6s-0.5-1.1-0.7-2.1l-1.3-5.7h-0.3c-0.8,1.7-1.8,3.1-3.1,4.3   c-1.3,1.2-2.7,2.3-4.2,3.1c-1.6,0.8-3.2,1.5-5,1.9c-1.7,0.5-3.4,0.7-5.1,0.7c-3.7,0-7.1-0.6-10.3-1.8c-3.2-1.2-5.9-2.9-8.3-5.2   c-2.4-2.3-4.2-5.1-5.6-8.5s-2.1-7.2-2.1-11.5V90.1c0-1.8,0.8-2.8,2.5-2.8h10.7c1.7,0,2.5,0.9,2.5,2.8V129c0,2.7,0.2,5.2,0.6,7.7   c0.4,2.4,1,4.6,2,6.4c0.9,1.8,2.1,3.3,3.7,4.4c1.5,1.1,3.4,1.7,5.7,1.7c9.1,0,13.7-7.2,13.7-21.5V90.2c0-1.8,0.9-2.8,2.6-2.8h10.4   c1.7,0,2.6,0.9,2.6,2.8v66.2c0,1.8-0.9,2.8-2.6,2.8h-6.5V159.1z"/>
	<path class="st6" d="M236,159.1c-5.9,0-10.4-1.8-13.5-5.3c-3-3.5-4.6-8.9-4.6-16.2V59.8c0-1.8,0.9-2.8,2.6-2.8H231   c1.7,0,2.6,0.9,2.6,2.8v76.8c0,3.9,0.4,6.6,1.2,8.3s1.6,2.6,2.5,2.6h0.9c1.7,0,2.6,0.9,2.6,2.8v6.1c0,1.8-0.9,2.8-2.6,2.8   L236,159.1L236,159.1z"/>
	<path class="st6" d="M370.1,67.5c3.2,9.7-2.7,14.2-2.7,14.2c-37.7-18.7-56.1-4.6-61.4,8.1c-6.8,16.3-23.4,66.8-23.4,66.8   c-0.8,1.7-2,2.5-3.7,2.5h-8.4c-1.7,0-2.9-0.8-3.7-2.5l-23.4-66.8c-0.8-1.7-0.3-2.5,1.6-2.5h12c1.7,0,2.9,0.9,3.4,2.6l14.2,52.6   c0,0,12-39.8,16.7-52.6C310.2,38.1,370.1,67.5,370.1,67.5z"/>
	<path class="st6" d="M364.4,150.4c0.8,1.3,0.7,2.5-0.1,3.6c-0.6,0.7-1.6,1.5-3.1,2.3c-1.4,0.8-3.2,1.6-5.2,2.2s-4.3,1.2-6.9,1.6   c-2.5,0.4-5.2,0.6-8,0.6c-6,0-11-1-15-3s-7.1-4.7-9.5-8.1s-4-7.3-4.9-11.7c-0.9-4.4-1.4-9.1-1.4-13.9c0-5.3,0.5-10.3,1.6-15   c1-4.6,2.7-8.7,5-12.1s5.3-6.2,8.9-8.2c3.7-2,8.1-3,13.5-3c3.9,0,7.6,0.6,11,1.8c3.4,1.2,6.4,3,8.9,5.5s4.4,5.6,5.9,9.3   c1.4,3.7,2.2,8.1,2.2,13c0,2.7-0.2,4.9-0.7,6.6s-1.3,3.2-2.4,4.2c-1.1,1.1-2.5,1.8-4.4,2.3c-1.8,0.5-4.1,0.7-6.8,0.7h-26.8   c0.3,2.9,0.7,5.6,1.4,8.1c0.7,2.4,1.6,4.6,2.9,6.3c1.3,1.8,2.9,3.2,4.9,4.2s4.4,1.5,7.2,1.5c2.5,0,5-0.3,7.6-1   c2.5-0.7,5.1-1.5,7.8-2.4c1.3-0.5,2.2-0.6,2.5-0.4c0.4,0.2,0.7,0.4,0.9,0.7L364.4,150.4z M346.6,117.4c2,0,3.4-0.3,4.1-0.8   c0.7-0.5,1.1-1.8,1.1-3.9c0-2-0.3-4-0.9-5.9c-0.6-1.9-1.4-3.5-2.4-5c-1-1.4-2.2-2.6-3.6-3.4c-1.4-0.9-3-1.3-4.7-1.3   c-2.4,0-4.4,0.6-6,1.7c-1.7,1.1-3,2.6-4.1,4.4c-1.1,1.8-1.9,4-2.5,6.4s-0.9,5-1.1,7.8L346.6,117.4L346.6,117.4z"/>
</g>
</svg>