<?xml version="1.0" standalone="no"?>
<!DOCTYPE svg PUBLIC "-//W3C//DTD SVG 20010904//EN"
 "http://www.w3.org/TR/2001/REC-SVG-20010904/DTD/svg10.dtd">
<svg version="1.0" xmlns="http://www.w3.org/2000/svg"
 width="512.000000pt" height="512.000000pt" viewBox="0 0 512.000000 512.000000"
 preserveAspectRatio="xMidYMid meet">

<g transform="translate(0.000000,512.000000) scale(0.100000,-0.100000)"
fill="#000000" stroke="none">
<path d="M4251 5104 c-30 -8 -75 -26 -100 -40 -53 -28 -201 -159 -201 -177 0
-7 142 -154 316 -327 l315 -315 79 83 c125 131 171 255 149 408 -37 262 -303
437 -558 368z"/>
<path d="M3423 4361 l-302 -307 317 -317 317 -317 303 303 c166 166 302 307
302 312 0 11 -622 636 -630 634 -3 -1 -141 -139 -307 -308z"/>
<path d="M2695 3630 l-210 -210 530 -530 530 -530 335 334 c217 216 351 342
380 357 64 34 205 34 267 1 101 -53 154 -137 161 -253 4 -66 1 -84 -20 -130
-14 -30 -50 -83 -81 -119 -97 -111 -157 -268 -157 -408 1 -151 68 -304 194
-439 101 -107 154 -138 217 -128 52 9 105 56 120 106 20 66 0 109 -97 210
-105 110 -129 157 -128 259 0 92 19 137 102 232 101 117 152 249 152 396 0
109 -14 171 -62 272 -96 200 -305 330 -530 330 -105 0 -168 -15 -268 -62 -76
-36 -101 -56 -228 -182 l-143 -140 -422 422 c-232 232 -424 422 -427 422 -3 0
-100 -95 -215 -210z"/>
<path d="M1527 2462 l-737 -737 530 -530 530 -530 105 105 105 105 107 -108
108 -107 -68 -68 c-77 -78 -94 -118 -77 -181 13 -48 66 -97 114 -106 81 -16
59 -35 759 663 362 362 665 670 674 686 20 38 19 108 -3 145 -36 60 -131 89
-192 57 -15 -8 -52 -40 -82 -70 -30 -31 -59 -56 -64 -56 -6 0 -57 46 -113 102
l-103 103 107 107 108 108 -525 525 c-289 289 -529 525 -535 525 -6 0 -342
-332 -748 -738z m1023 30 c50 -25 80 -75 80 -132 0 -57 -30 -107 -80 -132 -98
-50 -210 21 -210 132 0 81 67 150 145 150 17 0 46 -8 65 -18z m-409 -435 c89
-59 89 -185 0 -244 -71 -48 -175 -20 -213 57 -50 98 21 210 132 210 32 0 58
-7 81 -23z m879 -442 l105 -105 -108 -108 -107 -107 -107 107 -108 108 105
105 c58 58 107 105 110 105 3 0 52 -47 110 -105z m-1302 18 c49 -36 66 -69 65
-124 -2 -147 -189 -202 -270 -80 -48 71 -20 174 57 214 43 22 111 18 148 -10z
m972 -548 c0 -13 -192 -205 -205 -205 -13 0 -205 192 -205 205 0 5 46 56 102
112 l103 103 102 -102 c57 -57 103 -107 103 -113z"/>
<path d="M403 1338 c-137 -139 -173 -181 -182 -213 -17 -63 1 -109 74 -184
l63 -66 -75 -80 c-49 -52 -87 -105 -111 -154 -36 -73 -37 -77 -37 -191 0 -114
1 -118 37 -191 118 -238 391 -327 622 -201 27 15 85 60 128 101 l79 74 63 -62
c35 -33 76 -65 91 -71 37 -14 91 -12 123 4 15 8 101 89 192 180 l165 166 -530
530 -530 530 -172 -172z"/>
</g>
</svg>
