<?xml version="1.0" standalone="no"?>
<!DOCTYPE svg PUBLIC "-//W3C//DTD SVG 20010904//EN"
 "http://www.w3.org/TR/2001/REC-SVG-20010904/DTD/svg10.dtd">
<svg version="1.0" xmlns="http://www.w3.org/2000/svg"
 width="512.000000pt" height="512.000000pt" viewBox="0 0 512.000000 512.000000"
 preserveAspectRatio="xMidYMid meet">

<g transform="translate(0.000000,512.000000) scale(0.100000,-0.100000)"
fill="#000000" stroke="none">
<path d="M4043 5090 c-40 -24 -62 -57 -70 -103 -8 -53 12 -98 72 -157 l55 -54
105 104 105 104 -48 49 c-26 27 -59 55 -74 63 -39 20 -107 18 -145 -6z"/>
<path d="M4840 5082 c-25 -17 -562 -548 -1195 -1181 l-1150 -1151 120 -120
c66 -66 124 -120 130 -120 6 0 535 525 1177 1168 1049 1050 1168 1171 1178
1210 29 111 -43 212 -157 220 -51 3 -63 0 -103 -26z"/>
<path d="M3582 4630 c-64 -39 -91 -125 -58 -188 8 -15 37 -49 65 -77 l51 -49
105 104 105 104 -48 49 c-26 27 -59 55 -74 63 -39 20 -107 18 -146 -6z"/>
<path d="M4872 4207 l-102 -102 57 -57 c70 -67 89 -78 143 -78 98 0 163 80
145 177 -5 26 -25 55 -67 100 -34 34 -64 63 -67 63 -4 0 -52 -46 -109 -103z"/>
<path d="M2342 4079 c-150 -19 -312 -82 -430 -166 -76 -54 -251 -219 -293
-277 -39 -52 -39 -107 0 -184 44 -87 61 -157 61 -248 0 -156 -67 -294 -187
-386 -81 -61 -158 -90 -258 -96 -159 -9 -271 36 -400 158 -94 91 -110 100
-166 100 -42 0 -46 -4 -207 -162 -90 -90 -185 -192 -212 -227 -324 -430 -331
-1018 -19 -1461 29 -41 115 -138 190 -215 l138 -140 183 182 c150 148 190 183
224 192 115 31 216 -83 174 -196 -6 -15 -92 -109 -191 -208 l-179 -181 132
-130 c156 -154 260 -234 389 -297 185 -91 343 -128 550 -128 262 0 503 74 709
219 81 56 405 375 421 413 23 58 5 94 -103 206 -76 80 -108 121 -134 176 -40
85 -55 176 -43 267 15 123 56 206 141 286 101 96 206 138 343 137 93 0 144
-12 240 -59 78 -38 111 -42 160 -18 43 20 259 242 312 319 196 290 224 642 74
950 -27 55 -73 131 -102 168 l-52 68 -496 -495 c-431 -430 -501 -495 -533
-501 -79 -15 -87 -9 -356 259 -140 138 -260 263 -268 278 -17 32 -18 101 -3
131 6 12 230 241 497 509 434 435 484 488 472 503 -27 32 -129 105 -203 145
-178 96 -381 135 -575 109z m-486 -1664 c58 -26 128 -85 150 -126 31 -61 11
-148 -44 -188 -63 -44 -128 -39 -193 15 -33 28 -48 34 -68 29 -15 -4 -111 -91
-232 -210 -179 -178 -214 -208 -274 -236 -128 -61 -266 -50 -371 30 -80 59
-103 129 -66 201 39 79 138 104 217 55 22 -13 51 -25 64 -25 18 0 77 53 235
208 220 217 265 251 366 271 64 13 157 3 216 -24z m417 -399 c44 -19 100 -80
134 -146 25 -49 28 -65 28 -150 0 -87 -3 -101 -33 -164 -28 -61 -59 -96 -236
-275 -112 -113 -207 -216 -211 -229 -5 -17 1 -34 20 -62 53 -77 39 -169 -34
-217 -43 -29 -113 -31 -157 -4 -89 54 -144 199 -124 324 18 115 46 154 272
383 177 180 208 216 208 241 0 18 -9 38 -21 49 -77 70 -62 196 31 245 41 23
79 24 123 5z"/>
<path d="M4412 3747 l-102 -102 63 -63 c67 -66 105 -83 164 -75 44 7 100 57
114 103 19 63 5 103 -63 175 -33 36 -63 65 -67 65 -3 0 -52 -46 -109 -103z"/>
<path d="M248 463 c-53 -54 -102 -111 -107 -126 -43 -114 60 -227 177 -195 26
7 66 39 135 106 53 53 97 101 97 107 0 10 -190 205 -200 205 -3 0 -49 -44
-102 -97z"/>
</g>
</svg>
