<?xml version="1.0" standalone="no"?>
<!DOCTYPE svg PUBLIC "-//W3C//DTD SVG 20010904//EN"
 "http://www.w3.org/TR/2001/REC-SVG-20010904/DTD/svg10.dtd">
<svg version="1.0" xmlns="http://www.w3.org/2000/svg"
 width="512.000000pt" height="512.000000pt" viewBox="0 0 512.000000 512.000000"
 preserveAspectRatio="xMidYMid meet">

<g transform="translate(0.000000,512.000000) scale(0.100000,-0.100000)"
fill="#000000" stroke="none">
<path d="M3996 5017 c-71 -40 -98 -136 -57 -203 l19 -31 -35 -64 c-48 -87
-174 -271 -283 -415 l-90 -119 359 -359 359 -359 133 101 c165 123 341 243
410 278 50 25 54 25 86 10 92 -44 201 5 219 99 14 79 21 71 -484 579 -272 272
-491 484 -509 492 -45 20 -82 17 -127 -9z"/>
<path d="M3243 3833 l-110 -118 28 -39 c16 -21 38 -63 50 -95 30 -76 32 -221
5 -304 l-19 -59 191 -191 192 -192 -102 -103 -103 -102 -192 192 -193 192 -47
-18 c-27 -10 -85 -20 -129 -23 -99 -7 -194 18 -272 71 l-50 33 -97 -97 -96
-96 33 -50 c74 -109 95 -277 49 -394 l-21 -55 195 -195 195 -195 -98 -98 c-53
-53 -102 -97 -107 -97 -5 0 -95 85 -200 190 l-190 189 -60 -21 c-119 -41 -263
-23 -379 47 l-60 36 -95 -95 -94 -94 32 -51 c70 -109 92 -274 51 -391 l-18
-54 191 -199 190 -198 -101 -102 -102 -102 -194 194 -194 193 -53 -18 c-39
-14 -81 -19 -149 -18 -105 0 -172 20 -252 74 l-43 29 -108 -107 c-59 -59 -106
-110 -105 -114 2 -4 151 -156 332 -338 l330 -331 218 218 218 217 123 -122
c131 -129 170 -154 271 -173 73 -13 163 3 236 42 44 23 205 179 767 742 618
618 715 719 737 768 37 79 48 149 36 222 -16 99 -51 157 -176 286 l-114 119
224 219 225 219 -337 337 c-185 185 -340 337 -343 337 -4 0 -56 -53 -116 -117z
m340 -1453 c0 -28 -33 -65 -294 -326 l-294 -294 -120 120 -120 120 310 310
310 310 104 -104 c88 -88 104 -109 104 -136z m-921 -717 l116 -116 -271 -279
c-150 -153 -287 -288 -304 -299 -22 -14 -40 -18 -55 -14 -13 4 -69 53 -126
108 l-102 102 307 307 c170 170 310 308 313 308 2 0 57 -52 122 -117z"/>
<path d="M2688 3531 c-38 -35 -42 -43 -45 -97 -3 -47 0 -66 16 -92 61 -97 202
-95 258 4 61 105 -10 224 -134 224 -49 0 -58 -4 -95 -39z"/>
<path d="M1884 2721 c-77 -47 -100 -122 -62 -199 40 -80 133 -110 209 -66 48
27 83 100 74 154 -17 103 -136 163 -221 111z"/>
<path d="M1076 1900 c-57 -18 -106 -85 -106 -147 0 -46 37 -107 79 -131 102
-58 221 12 221 130 0 30 -7 62 -17 80 -33 55 -115 87 -177 68z"/>
<path d="M203 788 c-264 -267 -264 -270 -50 -484 158 -158 216 -194 341 -215
172 -29 388 43 524 174 l42 42 -332 332 c-183 183 -335 333 -339 333 -3 0 -87
-82 -186 -182z"/>
</g>
</svg>
