<?xml version="1.0" standalone="no"?>
<!DOCTYPE svg PUBLIC "-//W3C//DTD SVG 20010904//EN"
 "http://www.w3.org/TR/2001/REC-SVG-20010904/DTD/svg10.dtd">
<svg version="1.0" xmlns="http://www.w3.org/2000/svg"
 width="512.000000pt" height="512.000000pt" viewBox="0 0 512.000000 512.000000"
 preserveAspectRatio="xMidYMid meet">

<g transform="translate(0.000000,512.000000) scale(0.100000,-0.100000)"
fill="#000000" stroke="none">
<path d="M4785 5103 c-16 -9 -84 -63 -149 -120 l-120 -103 -86 84 c-91 89
-124 105 -190 91 -46 -10 -98 -60 -110 -106 -18 -65 0 -103 85 -189 l76 -76
-98 -85 c-146 -127 -125 -121 -196 -51 -75 72 -96 84 -154 84 -102 0 -171
-109 -129 -205 8 -18 166 -183 357 -374 303 -300 349 -342 382 -349 86 -15
165 39 174 120 8 69 -3 94 -74 167 -75 78 -80 56 46 202 l85 98 76 -76 c86
-85 124 -103 189 -85 48 13 97 66 106 114 13 65 -3 96 -91 187 l-84 85 103
120 c57 65 111 133 120 151 38 72 9 141 -99 244 -95 89 -152 108 -219 72z"/>
<path d="M3040 3590 c-311 -276 -589 -525 -617 -554 -50 -51 -53 -57 -53 -106
0 -28 6 -63 14 -78 18 -32 442 -455 473 -471 34 -17 114 -13 144 7 19 12 791
876 1075 1202 12 14 -18 48 -229 258 l-242 242 -565 -500z"/>
<path d="M1991 3675 c-136 -30 -259 -84 -366 -160 -33 -24 -142 -126 -242
-227 -151 -152 -183 -189 -188 -220 -9 -46 7 -95 45 -143 84 -105 21 -245
-110 -245 -59 0 -82 16 -210 145 -63 64 -128 123 -144 132 -36 19 -105 19
-142 0 -39 -20 -298 -286 -359 -369 -268 -362 -345 -825 -206 -1248 25 -74
125 -283 144 -298 9 -7 35 17 97 90 47 55 109 117 139 139 140 101 305 114
466 35 59 -29 93 -58 220 -188 110 -112 158 -168 177 -208 74 -157 57 -329
-47 -467 -23 -32 -86 -94 -138 -138 -53 -44 -96 -82 -96 -86 -2 -10 146 -87
234 -122 461 -181 976 -102 1363 210 43 33 134 119 204 190 195 198 195 218
-2 418 -70 72 -133 140 -139 152 -33 64 0 158 69 194 59 32 110 22 189 -36 44
-32 71 -39 119 -30 31 6 66 36 220 188 194 192 248 258 306 373 62 123 88 231
93 385 6 149 -3 225 -42 348 -43 134 -26 141 -235 -100 -201 -232 -251 -273
-364 -304 -101 -27 -222 -18 -311 24 -63 29 -94 57 -331 294 -173 173 -270
277 -284 307 -73 146 -65 327 20 461 22 33 105 113 248 237 240 208 233 194
118 232 -111 37 -197 50 -326 49 -69 0 -154 -7 -189 -14z m-168 -1349 c18 -8
138 -121 268 -252 250 -252 259 -264 245 -339 -17 -91 -131 -145 -214 -101
-32 18 -475 462 -491 493 -6 12 -11 42 -11 66 0 105 107 175 203 133z m-420
-427 c33 -16 476 -459 494 -493 44 -83 -11 -195 -104 -212 -74 -14 -94 1 -350
258 -207 208 -242 248 -248 280 -13 67 12 124 68 158 36 22 106 26 140 9z"/>
<path d="M650 1042 c-39 -19 -527 -572 -560 -634 -41 -77 -15 -143 96 -249 95
-90 153 -109 221 -71 38 20 580 489 617 532 14 17 28 46 32 65 12 67 -2 93
-125 218 -149 154 -201 179 -281 139z"/>
</g>
</svg>
