<?xml version="1.0" standalone="no"?>
<!DOCTYPE svg PUBLIC "-//W3C//DTD SVG 20010904//EN"
 "http://www.w3.org/TR/2001/REC-SVG-20010904/DTD/svg10.dtd">
<svg version="1.0" xmlns="http://www.w3.org/2000/svg"
 width="512.000000pt" height="512.000000pt" viewBox="0 0 512.000000 512.000000"
 preserveAspectRatio="xMidYMid meet">

<g transform="translate(0.000000,512.000000) scale(0.100000,-0.100000)"
fill="#000000" stroke="none">
<path d="M4345 5106 c-16 -8 -109 -93 -205 -190 l-175 -176 187 -187 c166
-168 187 -192 193 -229 8 -52 -17 -117 -57 -145 -33 -24 -93 -35 -135 -24 -18
4 -95 73 -213 191 l-185 184 -174 -174 -173 -173 42 -62 c23 -34 51 -89 61
-122 25 -81 25 -205 -1 -279 l-19 -55 237 -238 237 -237 568 567 c606 606 598
597 583 680 -7 33 -46 76 -314 347 -170 170 -321 314 -339 322 -40 17 -79 17
-118 0z"/>
<path d="M3015 3991 c-93 -57 -106 -165 -29 -237 46 -44 98 -52 158 -25 57 25
86 69 86 131 0 113 -123 188 -215 131z"/>
<path d="M2662 3437 l-103 -103 46 -68 c24 -37 52 -93 61 -124 23 -77 21 -193
-3 -264 l-19 -57 238 -238 238 -238 318 318 317 317 -237 237 -237 237 -53
-17 c-151 -47 -292 -24 -411 67 -26 20 -48 36 -50 36 -1 0 -49 -46 -105 -103z"/>
<path d="M2165 3141 c-52 -32 -68 -58 -73 -116 -4 -43 0 -61 18 -90 41 -67
120 -89 190 -53 142 73 93 278 -67 278 -21 0 -51 -8 -68 -19z"/>
<path d="M1811 2586 l-104 -104 31 -38 c95 -119 124 -289 72 -425 l-17 -47
238 -238 239 -239 317 318 318 317 -239 239 -238 238 -47 -17 c-136 -51 -303
-23 -422 71 -20 16 -39 29 -41 29 -2 0 -50 -47 -107 -104z"/>
<path d="M1297 2280 c-45 -39 -61 -79 -54 -137 4 -39 12 -54 46 -85 39 -37 60
-43 121 -38 94 8 152 113 112 204 -27 59 -70 86 -139 86 -44 0 -58 -5 -86 -30z"/>
<path d="M962 1737 l-102 -102 388 -388 387 -387 210 210 210 210 -238 238
-238 238 -57 -19 c-73 -24 -193 -25 -270 -1 -31 10 -86 38 -121 61 -35 24 -64
43 -65 43 -1 0 -47 -46 -104 -103z"/>
<path d="M471 1246 l-175 -175 -30 26 c-36 30 -86 53 -118 53 -42 0 -103 -38
-126 -79 -26 -45 -28 -90 -7 -135 8 -17 217 -233 463 -478 396 -396 451 -447
485 -454 79 -14 156 32 179 107 14 49 0 100 -41 149 l-30 35 175 175 174 175
-388 388 -387 387 -174 -174z"/>
</g>
</svg>
