<?xml version="1.0" standalone="no"?>
<!DOCTYPE svg PUBLIC "-//W3C//DTD SVG 20010904//EN"
 "http://www.w3.org/TR/2001/REC-SVG-20010904/DTD/svg10.dtd">
<svg version="1.0" xmlns="http://www.w3.org/2000/svg"
 width="512.000000pt" height="512.000000pt" viewBox="0 0 512.000000 512.000000"
 preserveAspectRatio="xMidYMid meet">

<g transform="translate(0.000000,512.000000) scale(0.100000,-0.100000)"
fill="#000000" stroke="none">
<path d="M478 5104 c-15 -8 -32 -23 -38 -34 -6 -11 -10 -110 -10 -248 l0 -229
31 -62 c19 -37 48 -76 75 -98 l44 -37 0 -237 0 -237 -34 -6 c-41 -8 -81 -38
-101 -76 -23 -45 -22 -1763 1 -1901 87 -519 483 -950 996 -1083 608 -158 1250
133 1537 697 143 280 183 611 110 917 -94 401 -371 741 -743 915 -289 136
-642 163 -941 74 l-75 -22 0 -333 c0 -309 4 -358 25 -324 14 23 171 92 253
111 127 31 283 24 405 -18 124 -43 189 -85 293 -189 78 -77 99 -105 138 -185
59 -123 79 -207 79 -339 0 -321 -201 -602 -503 -705 -356 -121 -746 38 -911
370 -82 166 -79 128 -79 1094 0 550 -4 869 -10 893 -12 43 -66 93 -109 103
l-31 7 0 235 0 235 49 44 c29 26 62 69 78 102 28 56 28 60 31 272 3 191 1 219
-15 250 -29 57 -44 60 -293 59 -179 0 -231 -3 -252 -15z"/>
<path d="M1565 2558 c-144 -74 -235 -227 -235 -392 0 -172 92 -326 239 -400
28 -14 53 -26 56 -26 3 0 5 189 5 420 0 330 -3 420 -12 420 -7 -1 -31 -10 -53
-22z"/>
<path d="M1930 2160 l0 -420 25 10 c64 24 152 101 202 175 29 43 59 131 67
196 14 110 -31 246 -113 341 -36 42 -144 118 -168 118 -11 0 -13 -75 -13 -420z"/>
<path d="M4484 2526 c-33 -15 -38 -20 -150 -174 -181 -247 -435 -449 -694
-552 -30 -12 -104 -35 -163 -50 l-109 -27 -28 -85 c-99 -294 -294 -572 -532
-760 l-80 -63 324 -6 c277 -5 335 -9 408 -27 375 -90 686 -319 947 -695 39
-57 71 -78 126 -84 53 -5 103 19 134 66 l23 34 0 1167 0 1167 -23 34 c-41 61
-116 84 -183 55z"/>
</g>
</svg>
