<?xml version="1.0" standalone="no"?>
<!DOCTYPE svg PUBLIC "-//W3C//DTD SVG 20010904//EN"
 "http://www.w3.org/TR/2001/REC-SVG-20010904/DTD/svg10.dtd">
<svg version="1.0" xmlns="http://www.w3.org/2000/svg"
 width="512.000000pt" height="512.000000pt" viewBox="0 0 512.000000 512.000000"
 preserveAspectRatio="xMidYMid meet">

<g transform="translate(0.000000,512.000000) scale(0.100000,-0.100000)"
fill="#000000" stroke="none">
<path d="M4623 4838 l-283 -283 -44 44 -44 44 -219 -113 c-198 -102 -225 -118
-291 -183 l-72 -72 302 -302 303 -303 70 70 c65 65 80 88 184 291 l113 221
-43 44 -44 44 283 283 282 282 -108 108 -107 107 -282 -282z"/>
<path d="M3247 3852 c-114 -114 -207 -209 -207 -212 0 -3 28 -3 62 -2 145 9
275 -43 384 -152 109 -109 161 -239 152 -384 -1 -34 -1 -62 2 -62 3 0 99 93
213 208 l207 207 -303 303 -302 302 -208 -208z"/>
<path d="M3052 3329 c-46 -14 -118 -88 -131 -135 -24 -87 -7 -159 53 -218 99
-99 255 -82 333 36 24 36 28 52 28 113 0 61 -4 77 -28 113 -40 61 -94 93 -164
98 -32 2 -73 -1 -91 -7z"/>
<path d="M2560 3165 l-44 -45 46 0 46 0 4 45 c2 25 1 45 -2 45 -3 0 -26 -20
-50 -45z"/>
<path d="M2520 2805 c-141 -64 -170 -248 -56 -353 99 -91 249 -73 323 39 24
37 28 52 28 118 0 66 -4 81 -27 114 -43 63 -92 91 -168 94 -43 2 -77 -2 -100
-12z"/>
<path d="M1816 2421 l-280 -280 87 0 c147 1 260 -44 363 -143 105 -100 154
-220 155 -372 l0 -90 280 280 c153 153 279 280 279 281 0 2 -26 0 -57 -3 -74
-7 -189 16 -268 56 -174 86 -278 257 -279 457 -1 51 -1 93 -1 93 0 0 -126
-126 -279 -279z"/>
<path d="M3158 2613 c-38 -4 -38 -4 -38 -51 l0 -46 45 44 c42 41 56 62 38 58
-5 -1 -25 -3 -45 -5z"/>
<path d="M1590 1840 c-104 -19 -173 -103 -173 -210 0 -122 91 -213 213 -213
123 0 212 90 212 213 0 138 -117 235 -252 210z"/>
<path d="M995 1599 c-119 -120 -122 -121 -395 -286 l-276 -165 -136 -242 c-75
-132 -148 -261 -162 -286 l-25 -46 287 -287 287 -287 286 162 287 162 158 265
c157 264 159 267 289 400 l130 134 -55 -6 c-77 -8 -194 15 -270 53 -88 44
-179 135 -225 222 -43 81 -69 205 -59 280 4 26 5 48 3 48 -3 0 -58 -54 -124
-121z"/>
</g>
</svg>
