<?xml version="1.0" standalone="no"?>
<!DOCTYPE svg PUBLIC "-//W3C//DTD SVG 20010904//EN"
 "http://www.w3.org/TR/2001/REC-SVG-20010904/DTD/svg10.dtd">
<svg version="1.0" xmlns="http://www.w3.org/2000/svg"
 width="512.000000pt" height="512.000000pt" viewBox="0 0 512.000000 512.000000"
 preserveAspectRatio="xMidYMid meet">

<g transform="translate(0.000000,512.000000) scale(0.100000,-0.100000)"
fill="#000000" stroke="none">
<path d="M585 4971 c-184 -53 -334 -203 -389 -391 -9 -30 -19 -97 -23 -147
l-6 -93 -84 0 -83 0 0 -150 0 -150 85 0 85 0 0 -787 0 -788 420 -660 419 -660
-200 -200 -199 -200 0 -308 0 -307 150 0 150 0 0 248 0 247 173 173 172 172
418 0 417 0 0 -420 0 -420 150 0 150 0 0 420 0 420 413 0 412 0 173 -173 172
-172 0 -248 0 -247 150 0 150 0 0 313 0 312 -105 105 -105 105 242 5 243 5 0
150 0 150 -291 5 -291 5 373 589 374 588 0 789 0 789 85 0 85 0 0 150 0 150
-84 0 -83 0 -6 103 c-13 244 -144 427 -372 518 l-60 24 -1610 2 c-1500 2
-1614 1 -1670 -16z m3715 -781 l0 -150 -420 0 -420 0 0 -165 0 -165 -150 0
-150 0 0 165 0 165 -225 0 -225 0 0 -310 0 -310 -160 0 -160 0 0 -849 0 -849
-77 -3 c-43 -2 -111 -3 -150 -1 l-73 4 0 849 0 849 -165 0 -165 0 0 310 0 310
-225 0 -225 0 0 -165 0 -165 -150 0 -150 0 0 165 0 165 -420 0 -420 0 0 150 0
150 2065 0 2065 0 0 -150z m-3731 -1400 c96 -163 213 -312 361 -461 181 -183
336 -301 530 -407 151 -82 368 -158 518 -182 37 -6 77 -13 90 -16 l22 -4 0
-220 0 -220 -407 2 -407 3 -403 635 -403 635 0 200 c0 197 1 200 18 170 10
-16 46 -77 81 -135z m3029 -874 l-403 -636 -403 0 -402 0 2 222 3 223 60 7
c150 19 352 86 520 171 388 198 743 550 975 964 l45 80 3 -198 2 -197 -402
-636z"/>
<path d="M2070 3880 l0 -160 170 0 170 0 0 160 0 160 -170 0 -170 0 0 -160z"/>
<path d="M4790 1519 c-157 -21 -300 -38 -317 -38 l-33 -1 0 -353 0 -352 308
-39 c169 -21 322 -41 340 -43 l32 -6 0 437 0 436 -22 -1 c-13 -1 -151 -19
-308 -40z"/>
</g>
</svg>
