<?xml version="1.0" standalone="no"?>
<!DOCTYPE svg PUBLIC "-//W3C//DTD SVG 20010904//EN"
 "http://www.w3.org/TR/2001/REC-SVG-20010904/DTD/svg10.dtd">
<svg version="1.0" xmlns="http://www.w3.org/2000/svg"
 width="512.000000pt" height="512.000000pt" viewBox="0 0 512.000000 512.000000"
 preserveAspectRatio="xMidYMid meet">

<g transform="translate(0.000000,512.000000) scale(0.100000,-0.100000)"
fill="#000000" stroke="none">
<path d="M4898 4640 c-24 -13 -49 -40 -73 -80 -127 -210 -368 -454 -581 -592
-68 -43 -214 -114 -294 -141 -144 -49 -212 -59 -451 -64 l-227 -5 14 58 c37
156 -6 306 -120 420 -97 96 -217 141 -350 131 -81 -6 -137 -26 -214 -74 l-53
-33 -43 30 c-83 56 -141 74 -251 74 -112 1 -162 -13 -253 -71 l-53 -33 -43 30
c-180 123 -416 101 -572 -54 -113 -113 -157 -264 -120 -417 l13 -56 -171 -6
c-125 -4 -191 -10 -246 -25 -397 -105 -679 -386 -781 -778 -20 -76 -23 -112
-23 -249 1 -174 12 -232 73 -390 94 -243 333 -482 576 -576 189 -73 182 -72
688 -77 l457 -3 0 -600 0 -599 713 0 c758 0 812 3 955 50 233 77 431 229 563
433 62 96 107 199 142 327 29 109 29 371 0 480 -76 276 -229 493 -449 637
-175 115 -333 162 -566 170 l-158 6 0 148 0 149 318 0 c334 0 433 -9 582 -50
81 -23 254 -102 335 -153 215 -135 460 -383 590 -597 40 -66 90 -100 145 -100
50 0 107 35 130 80 20 39 20 56 20 1270 0 1214 0 1231 -20 1270 -37 72 -127
99 -202 60z m-3178 -590 c45 -23 80 -80 80 -131 0 -74 -76 -149 -151 -149 -73
0 -149 78 -149 151 1 49 31 98 76 125 48 29 92 30 144 4z m600 0 c45 -23 80
-80 80 -131 0 -74 -76 -149 -151 -149 -73 0 -149 78 -149 151 1 49 31 98 76
125 48 29 92 30 144 4z m600 0 c45 -23 80 -80 80 -131 0 -74 -76 -149 -151
-149 -73 0 -149 78 -149 151 1 49 31 98 76 125 48 29 92 30 144 4z m-1420
-1340 l0 -150 -240 0 c-222 0 -244 2 -280 20 -45 23 -80 80 -80 130 0 48 35
107 78 129 34 18 58 20 280 21 l242 0 0 -150z m600 0 l0 -150 -150 0 -150 0 0
150 0 150 150 0 150 0 0 -150z m600 0 l0 -150 -150 0 -150 0 0 150 0 150 150
0 150 0 0 -150z m-300 -1200 l0 -150 -150 0 -150 0 0 150 0 150 150 0 150 0 0
-150z m820 130 c45 -23 80 -80 80 -130 0 -50 -35 -107 -80 -130 -36 -18 -58
-20 -280 -20 l-240 0 0 150 0 150 240 0 c222 0 244 -2 280 -20z"/>
<path d="M978 1339 c-23 -12 -46 -35 -58 -59 -19 -37 -20 -58 -20 -370 0 -376
2 -385 78 -428 38 -21 50 -22 281 -22 l241 0 0 450 0 450 -242 0 c-222 -1
-246 -3 -280 -21z"/>
</g>
</svg>
