<?xml version="1.0" standalone="no"?>
<!DOCTYPE svg PUBLIC "-//W3C//DTD SVG 20010904//EN"
 "http://www.w3.org/TR/2001/REC-SVG-20010904/DTD/svg10.dtd">
<svg version="1.0" xmlns="http://www.w3.org/2000/svg"
 width="512.000000pt" height="512.000000pt" viewBox="0 0 512.000000 512.000000"
 preserveAspectRatio="xMidYMid meet">

<g transform="translate(0.000000,512.000000) scale(0.100000,-0.100000)"
fill="#000000" stroke="none">
<path d="M4899 3940 c-20 -10 -44 -31 -53 -46 -31 -46 -168 -184 -246 -247
-230 -186 -472 -302 -746 -358 -100 -21 -143 -23 -506 -27 l-398 -4 0 92 c0
71 -4 99 -20 130 -23 45 -80 80 -130 80 -50 0 -107 -35 -130 -80 -16 -31 -20
-59 -20 -130 l0 -90 -150 0 -150 0 0 90 c0 112 -20 159 -80 190 -50 25 -90 25
-140 0 -60 -31 -80 -78 -80 -190 l0 -90 -150 0 -150 0 0 90 c0 112 -20 159
-80 190 -50 25 -90 25 -140 0 -66 -33 -80 -75 -80 -229 l0 -129 -72 -37 c-274
-139 -464 -379 -550 -692 -30 -112 -31 -373 -1 -483 56 -204 147 -366 282
-501 135 -134 293 -223 501 -282 72 -21 94 -22 635 -22 557 0 560 0 649 24
394 104 675 386 778 781 20 79 36 316 24 364 l-6 26 -306 0 -306 0 6 -32 c35
-164 -1 -308 -105 -423 -55 -60 -156 -117 -237 -134 -73 -15 -912 -15 -984 0
-126 27 -242 115 -301 227 -95 181 -65 384 78 528 67 68 139 106 230 124 44 8
327 10 1035 8 953 -4 977 -4 1068 -25 322 -74 596 -223 839 -457 46 -43 100
-101 120 -128 42 -55 96 -88 143 -88 50 0 107 35 130 80 20 38 20 57 20 920 0
863 0 882 -20 920 -37 72 -127 99 -201 60z"/>
<path d="M80 3441 c-19 -10 -45 -36 -57 -57 -22 -38 -23 -44 -23 -422 0 -364
1 -385 20 -422 23 -46 81 -80 133 -80 22 0 98 32 226 95 l192 95 21 52 c72
176 162 312 299 451 l105 107 -202 0 -203 0 -201 100 c-217 108 -246 115 -310
81z"/>
<path d="M1778 2339 c-43 -22 -78 -81 -78 -129 0 -48 33 -103 78 -128 39 -22
43 -22 471 -22 413 0 434 1 471 20 45 23 80 80 80 130 0 50 -35 107 -80 130
-38 19 -58 20 -472 20 -411 -1 -435 -2 -470 -21z"/>
</g>
</svg>
