<?xml version="1.0" standalone="no"?>
<!DOCTYPE svg PUBLIC "-//W3C//DTD SVG 20010904//EN"
 "http://www.w3.org/TR/2001/REC-SVG-20010904/DTD/svg10.dtd">
<svg version="1.0" xmlns="http://www.w3.org/2000/svg"
 width="512.000000pt" height="512.000000pt" viewBox="0 0 512.000000 512.000000"
 preserveAspectRatio="xMidYMid meet">

<g transform="translate(0.000000,512.000000) scale(0.100000,-0.100000)"
fill="#000000" stroke="none">
<path d="M738 5099 c-23 -12 -46 -35 -58 -59 -42 -82 -18 -147 79 -218 173
-127 322 -282 442 -461 89 -132 141 -235 185 -368 69 -205 67 -178 71 -935 l4
-688 -150 0 c-129 0 -151 2 -151 15 0 36 -41 95 -80 115 -50 25 -90 25 -140 0
-70 -36 -80 -70 -80 -280 0 -210 10 -244 80 -280 50 -25 90 -25 140 0 39 20
80 79 80 115 0 13 22 15 149 15 l149 0 5 -382 c4 -336 7 -395 25 -479 128
-603 576 -1051 1182 -1180 151 -33 429 -33 580 0 466 99 843 388 1052 806 56
111 100 238 130 375 23 105 23 109 23 860 0 742 -1 756 -22 830 -59 207 -146
363 -280 499 -384 388 -1001 414 -1424 58 l-69 -58 0 -513 0 -513 128 -6 c70
-3 137 -9 150 -12 l22 -7 0 175 c0 191 9 253 48 337 33 70 132 169 205 204
264 124 575 -28 636 -312 15 -74 16 -1420 0 -1494 -16 -74 -62 -162 -115 -218
-52 -55 -155 -113 -232 -129 -80 -17 -580 -14 -663 3 -176 38 -334 160 -414
321 -58 119 -65 170 -65 523 l0 312 -450 0 -450 0 0 150 0 150 450 0 450 0 0
641 c0 725 3 770 70 970 58 176 121 293 244 459 88 118 247 277 364 364 92 70
122 110 122 167 0 49 -36 106 -80 129 -39 20 -56 20 -1172 20 -1108 -1 -1134
-1 -1170 -21z"/>
<path d="M3338 2789 c-23 -12 -46 -35 -58 -59 -19 -38 -20 -58 -20 -725 0
-654 1 -688 19 -723 22 -43 84 -82 130 -82 49 0 103 33 129 78 l22 40 0 686
c0 669 -1 688 -20 726 -37 73 -127 99 -202 59z"/>
<path d="M2662 1748 c3 -314 4 -324 26 -370 47 -95 141 -163 242 -175 l53 -6
-8 29 c-4 16 -10 191 -14 389 -6 331 -8 362 -25 388 -33 49 -84 67 -186 67
l-91 0 3 -322z"/>
</g>
</svg>
