<?xml version="1.0" standalone="no"?>
<!DOCTYPE svg PUBLIC "-//W3C//DTD SVG 20010904//EN"
 "http://www.w3.org/TR/2001/REC-SVG-20010904/DTD/svg10.dtd">
<svg version="1.0" xmlns="http://www.w3.org/2000/svg"
 width="512.000000pt" height="512.000000pt" viewBox="0 0 512.000000 512.000000"
 preserveAspectRatio="xMidYMid meet">

<g transform="translate(0.000000,512.000000) scale(0.100000,-0.100000)"
fill="#000000" stroke="none">
<path d="M4824 5106 c-17 -8 -73 -54 -125 -102 -52 -49 -107 -100 -122 -113
l-27 -25 -43 41 c-54 52 -76 63 -127 63 -92 0 -160 -65 -160 -153 0 -57 10
-79 57 -129 20 -20 34 -40 32 -46 -2 -5 -51 -52 -108 -106 l-103 -96 -36 31
c-69 61 -134 74 -202 39 -98 -50 -114 -171 -36 -258 l34 -37 -547 -512 c-719
-674 -658 -614 -671 -664 -21 -78 -5 -108 143 -256 149 -148 178 -164 256
-143 51 14 -9 -48 669 677 l507 542 30 -29 c65 -63 140 -73 214 -28 36 23 70
86 71 131 0 39 -22 87 -59 129 l-31 36 96 103 c54 57 101 106 106 108 6 2 26
-12 46 -32 49 -46 72 -57 122 -57 86 0 148 54 158 135 7 64 -3 91 -55 146
l-46 49 24 28 c13 14 64 69 113 121 89 95 116 138 116 186 0 43 -29 98 -78
148 -79 82 -146 104 -218 73z"/>
<path d="M2420 3979 c-173 -37 -389 -137 -477 -222 -50 -47 -57 -83 -43 -194
64 -478 -287 -883 -765 -883 -96 0 -178 15 -282 50 -98 33 -129 36 -176 16
-18 -7 -124 -107 -237 -222 -161 -164 -217 -228 -259 -298 -91 -146 -149 -314
-171 -489 -45 -363 85 -762 339 -1037 l59 -65 314 312 c265 263 319 313 353
322 115 30 225 -80 194 -194 -9 -33 -62 -92 -322 -353 l-312 -313 51 -48 c433
-401 1061 -475 1540 -180 70 42 134 98 298 259 115 113 215 219 222 237 20 47
17 78 -16 177 -41 119 -54 211 -47 331 7 122 26 195 78 301 144 294 464 459
802 414 115 -15 150 -6 200 49 78 87 168 273 208 434 30 117 37 370 15 498
-19 112 -44 202 -55 197 -5 -2 -146 -150 -313 -329 -185 -197 -325 -338 -356
-358 -111 -71 -245 -95 -366 -67 -121 29 -176 66 -342 231 -130 129 -156 161
-187 225 -80 163 -72 332 24 482 20 30 162 171 358 355 179 168 327 309 329
314 4 11 -83 36 -187 54 -123 22 -352 19 -471 -6z m-411 -1443 c84 -41 116
-154 64 -225 -31 -42 -82 -71 -123 -71 -34 0 -41 -5 -88 -69 -68 -91 -198
-212 -281 -261 -198 -118 -373 -138 -535 -62 -81 38 -129 81 -160 144 -68 137
10 298 143 298 74 0 144 -56 157 -125 l6 -35 58 0 c47 0 71 7 130 37 83 43
185 137 247 229 68 100 131 145 227 163 55 10 102 3 155 -23z m474 -465 c99
-61 105 -250 11 -360 -20 -23 -57 -56 -82 -73 -160 -109 -277 -261 -282 -368
-4 -73 -2 -77 35 -84 19 -4 48 -18 65 -33 94 -78 77 -213 -34 -268 -209 -104
-428 138 -388 427 13 90 56 201 112 287 51 78 168 200 251 263 39 29 67 57 67
66 -5 65 40 136 102 161 36 16 103 7 143 -18z"/>
</g>
</svg>
