<?xml version="1.0" standalone="no"?>
<!DOCTYPE svg PUBLIC "-//W3C//DTD SVG 20010904//EN"
 "http://www.w3.org/TR/2001/REC-SVG-20010904/DTD/svg10.dtd">
<svg version="1.0" xmlns="http://www.w3.org/2000/svg"
 width="512.000000pt" height="512.000000pt" viewBox="0 0 512.000000 512.000000"
 preserveAspectRatio="xMidYMid meet">

<g transform="translate(0.000000,512.000000) scale(0.100000,-0.100000)"
fill="#000000" stroke="none">
<path d="M4047 5098 c-39 -23 -77 -86 -77 -128 0 -40 37 -103 95 -160 l55 -55
107 108 108 107 -60 60 c-92 93 -153 111 -228 68z"/>
<path d="M4405 4620 l-500 -500 108 -107 107 -108 500 500 500 500 -108 108
-107 107 -500 -500z"/>
<path d="M3665 4690 c-70 -15 -115 -72 -115 -145 0 -49 18 -80 89 -150 l61
-60 105 105 105 105 -58 58 c-79 80 -122 101 -187 87z"/>
<path d="M4860 4224 l-105 -105 67 -64 c79 -75 126 -95 187 -77 49 15 88 54
102 102 20 65 5 103 -68 180 -36 39 -68 70 -72 70 -3 0 -54 -48 -111 -106z"/>
<path d="M2308 4005 c-258 -49 -502 -217 -636 -439 -73 -119 -167 -371 -158
-419 3 -16 23 -56 43 -90 33 -53 38 -68 37 -121 -1 -131 -115 -245 -246 -246
-69 0 -96 14 -164 87 -59 63 -63 66 -115 70 -64 6 -166 -29 -318 -107 -277
-143 -533 -425 -654 -720 -182 -441 -102 -928 220 -1357 l57 -74 234 234 234
234 -26 38 c-66 96 4 225 122 225 24 0 55 -6 70 -14 32 -17 285 -272 301 -303
6 -12 11 -41 11 -65 0 -118 -128 -188 -225 -122 l-38 26 -234 -234 -234 -234
74 -57 c156 -117 297 -192 468 -248 486 -159 971 -35 1355 346 124 123 194
217 261 349 74 147 105 242 100 305 -4 52 -7 56 -70 115 -71 66 -87 95 -87
158 0 63 20 115 63 164 55 62 108 88 183 88 54 1 68 -3 125 -39 52 -32 73 -40
109 -39 50 1 240 72 349 129 252 133 437 390 487 677 41 231 -22 522 -166 768
l-42 73 -367 -366 c-201 -201 -376 -370 -388 -376 -28 -14 -83 -14 -120 0 -36
13 -478 453 -498 495 -18 38 -20 96 -4 127 6 12 175 187 376 388 282 283 361
368 351 376 -7 6 -52 32 -99 57 -100 54 -218 99 -334 127 -108 27 -305 33
-407 14z m-195 -1636 c31 -16 236 -219 253 -251 21 -40 18 -105 -8 -146 -29
-47 -95 -76 -151 -67 -37 6 -57 23 -168 134 -111 111 -128 131 -134 168 -9 56
21 125 67 153 37 22 106 27 141 9z m-533 -272 c69 -34 93 -66 97 -131 5 -60
-18 -104 -69 -137 -27 -16 -43 -19 -88 -14 -131 15 -159 11 -269 -38 -148 -67
-223 -89 -309 -89 -130 0 -232 72 -232 164 0 109 98 179 200 144 49 -17 71
-12 214 52 153 67 212 82 311 80 75 -3 99 -8 145 -31z m450 -436 c24 -12 44
-36 65 -76 27 -52 30 -68 29 -144 -1 -91 -12 -130 -100 -336 -41 -97 -45 -138
-24 -217 12 -44 12 -50 -11 -94 -28 -55 -75 -84 -135 -84 -123 0 -202 174
-160 354 9 37 44 134 77 213 46 110 59 152 54 172 -18 66 -16 126 4 159 43 68
130 91 201 53z"/>
<path d="M3232 3447 l-462 -462 108 -108 107 -107 463 463 462 462 -108 108
-107 107 -463 -463z"/>
<path d="M4440 3805 l-105 -105 60 -61 c70 -71 101 -89 150 -89 84 0 147 62
147 144 0 57 -18 89 -89 158 l-58 58 -105 -105z"/>
</g>
</svg>
